<?xml version="1.0" encoding="UTF-8"?>
<svg width="320" height="568" viewBox="0 0 320 568" xmlns="http://www.w3.org/2000/svg">
  <!-- 素朴な背景 -->
  <rect width="320" height="568" fill="#f8f9fa"/>
  
  <!-- 中央ロゴ -->
  <g transform="translate(160,200)">
    <!-- 緑背景 -->
    <circle cx="0" cy="0" r="48" fill="#00704A"/>
    
    <!-- 白いカップ (丸み強化・拡大版) -->
    <g transform="translate(0,2)">
      <!-- カップ本体 -->
      <path d="M-21 -6 Q-21 -10 -18 -10 L18 -10 Q21 -10 21 -6 L21 13 Q21 21 14 21 L-14 21 Q-21 21 -21 13 Z" fill="white"/>
      <!-- カップハンドル (拡大) -->
      <path d="M21 -3 Q28 -3 28 2 Q28 6 21 6" fill="none" stroke="white" stroke-width="3.6"/>
      <!-- カップ上部リム -->
      <ellipse cx="0" cy="-10" rx="21" ry="3" fill="white"/>
      <!-- 蒸気 -->
      <path d="M-10 -15 Q-10 -21 -8 -21 Q-6 -21 -6 -15" fill="none" stroke="white" stroke-width="2" opacity="0.8"/>
      <path d="M0 -15 Q0 -23 2 -23 Q3 -23 3 -15" fill="none" stroke="white" stroke-width="2" opacity="0.8"/>
      <path d="M10 -15 Q10 -21 12 -21 Q13 -21 13 -15" fill="none" stroke="white" stroke-width="2" opacity="0.8"/>
    </g>
    
    <!-- 黄色い星 -->
    <g transform="translate(26,-18)">
      <path d="M0,-13 L3.6,-3.6 L13,0 L3.6,3.6 L0,13 L-3.6,3.6 L-13,0 L-3.6,-3.6 Z" fill="#FFD700"/>
    </g>
  </g>
  
  <!-- アプリ名 -->
  <text x="160" y="280" text-anchor="middle" fill="#00704A" font-family="-apple-system, BlinkMacSystemFont, 'Segoe UI', Roboto, sans-serif" font-size="28" font-weight="600">Cafe★Log</text>
  
  <!-- サブテキスト -->
  <text x="160" y="310" text-anchor="middle" fill="#6c757d" font-family="-apple-system, BlinkMacSystemFont, 'Segoe UI', Roboto, sans-serif" font-size="14" font-weight="400">カフェ店舗訪問記録</text>
</svg>